<svg width="100%" height="100%" viewBox="0 0 372 372" fill="none" xmlns="http://www.w3.org/2000/svg">
                                    <g clip-path="url(#clip0_173_9)">
                                    <path d="M278.709 257.014C277.5 254.86 275.309 253.44 272.848 253.217C265.618 252.559 258.698 252.225 252.285 252.225C225.781 252.225 206.191 257.848 193.89 268.95V199.745C195.533 199.839 197.191 199.893 198.863 199.893C220.429 199.893 239.859 192.289 252.166 179.034C263.248 167.098 268.363 150.794 266.959 131.882C265.291 109.441 259.092 98.521 253.623 88.886C251.166 84.56 248.846 80.472 247.09 75.527C238.293 50.779 256.213 26.923 256.383 26.701C258.393 24.105 258.479 20.504 256.596 17.812C254.713 15.123 251.299 13.97 248.172 14.966C247.143 15.294 239.545 17.767 228.742 22.486L205.547 1.89099C203.668 0.222993 201.076 -0.392007 198.651 0.247993C164.11 9.37499 148.161 19.332 142.538 23.543C140.874 22.858 125.677 17.397 122.235 16.402C115.479 14.451 113.87 13.986 111.042 15.435C108.95 16.507 107.483 18.497 107.075 20.81C106.669 23.124 107.37 25.496 108.97 27.216C109.142 27.402 126.017 45.933 117.812 69.941C116.9 72.611 115.55 75.724 113.988 79.332C108.595 91.781 101.209 108.83 101.156 131.842C101.113 150.244 106.994 165.446 118.631 177.022C137.543 195.835 165.156 198.954 178.893 199.247V245.925C166.729 233.79 146.569 227.646 118.854 227.646C112.44 227.646 105.522 227.98 98.2902 228.638C95.8312 228.863 93.6401 230.282 92.4311 232.437C91.2221 234.589 91.1501 237.201 92.2401 239.417C112.158 279.923 134.656 300.462 159.111 300.466C159.115 300.466 159.117 300.466 159.119 300.466C167.156 300.466 173.894 298.114 178.894 295.513V363.638C178.894 367.78 182.251 371.138 186.394 371.138C190.537 371.138 193.894 367.78 193.894 363.638V320.909C198.691 323.165 204.841 325.046 212.029 325.046C236.484 325.046 258.984 304.505 278.902 263.995C279.988 261.778 279.918 259.168 278.709 257.014ZM176.306 279.493C173.472 281.626 167.245 285.466 159.115 285.466C159.113 285.466 159.111 285.466 159.111 285.466C142.941 285.464 126.396 270.771 110.92 242.818C113.647 242.705 116.295 242.646 118.852 242.646C144.114 242.646 161.975 248.302 170.5 259.003C176.713 266.799 176.713 275.532 176.306 279.493ZM198.617 15.797L214.008 29.461C204.854 34.145 194.783 39.988 184.99 47.025C184.869 46.927 184.752 46.826 184.623 46.732C175.787 40.375 166.924 35.193 158.807 31.039M129.207 166.387C120.514 157.738 116.121 146.127 116.154 131.877C116.199 111.957 122.603 97.174 127.75 85.295C129.369 81.557 130.898 78.027 132.004 74.793C137.369 59.096 134.932 45.283 130.883 35.1C142.16 39.319 157.408 46.198 172.703 56.692C158.137 69.288 145.521 84.839 139.455 103.491C129.141 135.214 135.324 156.882 142.328 169.471C144.254 172.936 146.349 175.907 148.422 178.45C141.574 175.793 134.803 171.954 129.207 166.387ZM169.179 177.329C169.023 177.222 168.909 177.149 168.745 177.054C167.466 176.286 137.6 157.702 153.72 108.13C165.595 71.607 209.115 47.646 234.329 36.503C229.944 48.112 227.034 63.894 232.954 80.55C235.151 86.734 237.909 91.593 240.577 96.292C245.722 105.355 250.581 113.913 251.999 132.993C253.103 147.847 249.46 159.903 241.173 168.829C231.694 179.038 216.273 184.893 198.862 184.893C187.183 184.893 176.088 182.065 169.179 177.329ZM212.025 310.045C203.882 310.045 197.646 306.193 194.834 304.076C194.422 300.084 194.434 291.367 200.637 283.582C209.162 272.881 227.022 267.225 252.285 267.225C254.842 267.225 257.49 267.282 260.217 267.397C244.738 295.352 228.193 310.045 212.025 310.045Z" fill="#9E683F"/>
                                    </g>
                                    <defs>
                                    <clipPath id="clip0_173_9">
                                    <rect width="371.137" height="371.137" fill="white"/>
                                    </clipPath>
                                    </defs>
                                </svg>