<svg height="35px" width="35px" class="w-full" viewBox="0 0 386 423" fill="none" xmlns="http://www.w3.org/2000/svg">
                                    <path d="M263.539 177.828C238.053 177.828 213.88 185.533 193.239 200.086C179.071 190.107 162.699 183.055 145.01 179.822L192.815 148.523C195.745 146.605 196.957 142.916 195.736 139.632L181.525 101.439C180.432 98.501 177.629 96.554 174.496 96.554H71.987C68.854 96.554 66.05 98.501 64.958 101.439L50.745 139.632C49.524 142.913 50.736 146.605 53.666 148.523L101.346 179.74C44.164 189.977 0.626953 240.08 0.626953 300.162C0.626953 367.619 55.507 422.5 122.963 422.5C148.419 422.5 172.644 414.812 193.295 400.254C213.189 414.258 237.416 422.5 263.539 422.5C330.995 422.5 385.875 367.619 385.875 300.162C385.875 232.707 330.995 177.828 263.539 177.828ZM15.627 300.162C15.627 240.976 63.777 192.828 122.963 192.828C182.149 192.828 230.299 240.976 230.299 300.162C230.299 319.566 225.13 338.334 215.322 354.853C210.121 350.261 205.596 344.929 201.869 339.046C207.8 327.013 210.924 313.667 210.924 300.161C210.924 251.659 171.465 212.202 122.963 212.202C74.461 212.202 35.002 251.659 35.002 300.161C35.002 348.663 74.461 388.124 122.963 388.124C138.815 388.124 154.103 383.938 167.592 375.97C171.685 381.14 176.19 385.966 181.048 390.411C163.746 401.6 143.831 407.499 122.963 407.499C63.777 407.5 15.627 359.348 15.627 300.162ZM122.963 373.125C82.733 373.125 50.002 340.393 50.002 300.162C50.002 259.932 82.732 227.203 122.963 227.203C136.039 227.203 148.312 230.678 158.937 236.726C147.323 255.818 141.204 277.579 141.204 300.162C141.204 323.379 147.705 345.103 158.981 363.617C148.042 369.848 135.726 373.125 122.963 373.125ZM193.255 280.6C194.992 286.827 195.924 293.387 195.924 300.163C195.924 306.792 194.999 313.368 193.241 319.704C191.508 313.483 190.578 306.931 190.578 300.163C190.578 293.525 191.494 286.939 193.255 280.6ZM227.521 236.717C238.461 230.483 250.777 227.203 263.54 227.203C303.77 227.203 336.501 259.931 336.501 300.162C336.501 340.392 303.771 373.125 263.54 373.125C250.463 373.125 238.189 369.648 227.564 363.6C239.174 344.502 245.299 322.707 245.299 300.162C245.299 276.947 238.795 255.227 227.521 236.717ZM161.029 134.748H85.573L123.397 112.738L161.029 134.748ZM169.283 111.555L174.346 125.161L151.084 111.555H169.283ZM77.199 111.555H95.606L72.111 125.227L77.199 111.555ZM82.922 149.748H163.559L123.241 176.146L82.922 149.748ZM263.539 407.5C204.353 407.5 156.203 359.348 156.203 300.162C156.203 280.726 161.373 261.988 171.185 245.476C176.384 250.066 180.907 255.396 184.632 261.279C178.702 273.312 175.577 286.656 175.577 300.162C175.577 348.664 215.036 388.125 263.538 388.125C312.04 388.125 351.499 348.664 351.499 300.162C351.499 251.66 312.04 212.203 263.538 212.203C247.685 212.203 232.396 216.389 218.905 224.357C214.815 219.191 210.313 214.367 205.458 209.923C222.751 198.732 242.64 192.827 263.538 192.827C322.724 192.827 370.874 240.975 370.874 300.161C370.875 359.348 322.725 407.5 263.539 407.5Z" fill="#9E683F"/>
                                    <path d="M123.238 49.291C127.381 49.291 130.738 45.934 130.738 41.791V7.5C130.738 3.357 127.381 0 123.238 0C119.095 0 115.738 3.357 115.738 7.5V41.791C115.738 45.934 119.096 49.291 123.238 49.291Z" fill="#9E683F"/>
                                    <path d="M39.9641 80.623C41.4291 82.088 43.3481 82.82 45.2681 82.82C47.1871 82.82 49.1071 82.088 50.5711 80.623C53.5011 77.695 53.5011 72.945 50.5721 70.018L26.3251 45.77C23.3961 42.842 18.6471 42.84 15.7191 45.77C12.7891 48.698 12.7891 53.448 15.7181 56.375L39.9641 80.623Z" fill="#9E683F"/>
                                    <path d="M201.213 82.82C203.132 82.82 205.052 82.088 206.517 80.623L230.763 56.375C233.692 53.447 233.692 48.697 230.762 45.77C227.834 42.842 223.085 42.84 220.156 45.77L195.91 70.018C192.981 72.946 192.981 77.696 195.911 80.623C197.374 82.088 199.294 82.82 201.213 82.82Z" fill="#9E683F"/>
                                </svg>