<svg xmlns="http://www.w3.org/2000/svg" id="Layer_2" viewBox="0 0 15.32 14.3"><defs><style>.cls-1{fill:#3c3c3c;}</style></defs><g id="Layer_1-2"><g><path class="cls-1" d="M14.97,8.37c-.07,.2-.11,.44-.21,.63-.01-.1,.03-.21,.05-.31,.02-.08,.03-.19,.06-.26,0-.09,.02-.23,.02-.33,0-.11,0-.22,.05-.32,.05-.1,.02-.2,.04-.31,.02-.11,.06-.22,.08-.33h-.38c0-.09,0-.19,0-.28,0-.05,0-.09,0-.14,0-.02-.01-.07,0-.09,0-.01,.03-.02,.03-.04,0-.07-.04-.13-.04-.21,0-.1-.02-.19-.03-.29,0-.08,.03-.13,0-.2-.03-.07-.03-.06,.03-.11,.02-.02,.04,0,.04-.04,0-.05-.03-.01-.05-.04-.03-.06,.05-.04,.06-.1,0-.06-.09-.02-.12-.06,0-.02,0-.05,0-.07,0-.02,.06-.09,.06-.1,0-.04-.08-.04-.08-.1,0-.03,.02-.06,.03-.08,.02-.05,.03-.09,.03-.14,0-.2-.09-.42-.15-.61-.06-.21-.14-.41-.23-.61-.06-.15-.14-.29-.22-.43-.04-.07-.08-.16-.15-.21-.02,.11,.03,.23,.05,.33-.03-.1-.06-.05-.13-.03-.08,.02-.08-.05-.12-.12-.05-.1-.1-.21-.16-.31-.04-.07-.08-.13-.12-.2-.03-.04-.03-.11,.03-.08,.06,.03,.12,.13,.16,.18,.05-.05-.05-.18-.1-.2-.08-.04-.21-.08-.24-.16,.1,.04,.12,.11,.22,.02-.06-.05-.12-.09-.15-.16-.06-.13-.11-.27-.17-.4-.08-.16-.33-.3-.47-.39,.02,.04,.04,.09,.06,.13,.07-.04,.05,.07,.04,.1-.09-.08-.19-.12-.21-.25-.01-.07,0-.07-.08-.11-.07-.03-.06-.03-.07-.1,.04,.01,.08,.02,.13,.03,0-.06,.04-.15-.03-.18-.04-.02-.1,.02-.13,0-.02-.02,0-.07,0-.09,0-.09-.02-.15-.05-.23-.01,.03-.02,.07-.04,.09-.01,.02-.07,.07-.07,.09-.01,.05,.06,.1,.06,.15,0,.08-.05,.05-.1,.03-.05-.02-.11-.03-.15-.06-.05-.04-.07-.11-.12-.15-.07-.06-.15-.11-.22-.16-.05-.04-.4-.31-.44-.22-.02,.05,.07,.08,.11,.11,.07,.06,.12,.13,.18,.18,.13,.11,.28,.22,.41,.33,.07,.05,.13,.11,.19,.17,.03,.03,.15,.13,.14,.17,0,.08-.1,.01-.13,0-.06-.04-.11-.09-.18-.07l.02,.06c-.1-.08-.2-.15-.3-.22,.1,.04,.08-.05,.02-.1-.05-.05-.13-.07-.21-.08,.02,.04,.04,.07,.07,.1-.05-.04-.11-.07-.16-.1,.03,0,.05,0,.08,0-.07-.02-.06-.11-.13-.15-.02-.01-.18-.07-.18-.05,0,.03,.04,.05,.04,.08-.09-.05-.18-.1-.28-.15-.09-.04-.21-.08-.28-.14-.05-.04-.07-.09-.15-.1l-.02,.02-.07-.03c-.07-.03-.07-.03-.09-.1-.03,.05-.01,.05-.07,.03-.04,0-.07-.03-.11-.04-.08-.03-.16-.06-.25-.09,.03,0,.03-.02,0-.03v.02c-.5-.16-1.03-.27-1.55-.31-.26-.02-.52-.03-.77-.05-.12,0-.24,0-.37,0-.03,0-.32,0-.29,.08-.05,0-.09,.01-.14,.02,.03-.06-.13-.07-.04,0-.46,.07-.91,.18-1.34,.34-.05,.02-.11,.03-.16,.04-.02-.01-.03-.01-.04,0,0,0-.01,.02-.02,.03-.08,.04-.19,.09-.28,.13-.09,.04-.14,.07-.24,.08-.06,0-.1,0-.15,.04-.04,.03-.08,.08-.11,.12,.02,0,.03-.01,.05-.01-.13,.07-.25,.14-.37,.22,.04-.03,.06-.07,.09-.11-.14-.01-.3,.1-.42,.17-.03,.02-.07,.03-.1,.06-.07,.05-.05,.14,.04,.15-.03,.02-.05,.04-.08,.06-.03,.02-.01,0-.03,0-.02,.02,0,.01,0,.02-.75,.57-1.38,1.29-1.84,2.11,0-.05-.07,.06-.07,.07-.03,.04-.05,.09-.08,.14-.05,.1-.11,.2-.15,.3,.02-.02,.05-.04,.07-.06-.01,.03-.03,.06-.04,.1,0-.01-.01-.03-.02-.04-.03,.04-.07,.07-.08,.12-.02,.05,.02,.09,.01,.13,0,.06-.06,.14-.08,.2-.01,.03-.02,.06-.03,.09,0,.02-.04,.05-.04,.07,0,0,0,.04,0,.05,0,.05-.04,.08-.05,.12-.02,.06-.03,.13-.04,.19-.03-.03-.04-.02-.08,0,.02,.03,.03,.04,.07,.03-.04,.14-.07,.28-.1,.41,0,.02-.02,.18-.04,.19-.03,.01-.07-.06-.08-.08-.08,.17-.09,.42-.11,.61-.02,.22-.04,.44-.04,.66,0,.21,0,.43,0,.64,0,.06,0,.1,.03,.16,.01,.04,.03,.06,.02,.1-.02,.07-.07,.01-.07,.1,0,.29,.06,.61,.12,.89,.03,.14,.09,.24,.15,.37,0,.02,.03,.05,.03,.08-.01,.03-.05,.02-.05,.06,0,.02,.02,.04,.03,.06,.01,.04,.01,.09,.02,.13,.01-.05,.03-.09,.05-.14,.07,.09,.12,.16,.17,.26,.04,.08,.09,.24,.17,.24,0-.01,0-.04-.01-.05,.06,.03,.05,.13,.1,.19,.02,.03,.06,.04,.09,.07,.03,.03,.04,.08,.06,.12,.08,.15,.16,.29,.25,.43,.18,.28,.37,.55,.58,.81,.43,.51,.94,.96,1.5,1.33,.56,.37,1.18,.65,1.82,.85,.17,.05,.34,.13,.52,.18,.2,.05,.4,.07,.6,.1,.43,.06,.87,.07,1.3,.04,.31-.02,.63-.06,.94-.12,.12-.02,.25-.05,.37-.07,.08-.02,.17-.06,.26-.06,.02,0,.05,0,.07,.01,.03,.02,.04,.09,.06,.09,.04,.02,.05-.03,.08-.04,.02,0,.1,.03,.08,.04h0s.09-.07,.12-.1h0c.19-.07,.36-.18,.54-.27,.09-.04,.21-.05,.3-.11,.08-.05,.13-.09,.22-.11,.04-.01,.03,0,.06-.02,.01-.01,.02-.03,.04-.05,.01-.01,.07-.03,.08-.04,.04,0,.06,.02,.1,.02,.08,0,.21-.07,.27-.11,.1-.06,.18-.15,.26-.23h0c.08-.07,.21-.11,.31-.16,.28-.16,.52-.37,.76-.59,.11-.11,.22-.22,.33-.33,.1-.11,.21-.2,.32-.3,.12-.11,.19-.24,.26-.39,.07-.14,.14-.2,.27-.27-.05,.14-.12,.25-.2,.38,.05-.06,.62-.79,.48-.87-.06-.04-.14,.04-.12-.07,.03-.11,.12-.22,.18-.32,.03-.05,.05-.13,.1-.17,.04-.03,.09-.03,.13-.06,.06-.06,.08-.17,.1-.25-.1,.09-.23,.19-.29,.32-.05,.11-.11,.33-.24,.38,0-.04,.01-.05,.02-.09,0-.04,0-.04,0-.08,0-.08,.03-.12,.06-.19,.03-.07,.03-.14,.08-.21,.05-.08,.09-.16,.13-.25,.17-.36,.28-.74,.34-1.13-.03,.03-.09,.06-.1,.11ZM11.36,1.23s0,.02-.01,0c0-.01,0,0,.01,0Zm3.43,6.14s.01,0,.01,.03c-.02,0-.02,0-.01-.03Zm-.02,.27s.01-.04,.02-.07c0,.06,.02,.08-.02,.13,0-.02,0-.04,0-.06Zm-.13,.36s0,.01-.01,.01c0-.04,0,0,.01-.01Zm-.3,2.66v.03s-.02-.03,0-.03Zm-.16-.8s-.01,.01-.02,0h.02Zm.39-4.76s.01,.05,0,.09l-.05-.03,.05-.07Zm-.17-.23s.02,.02,0,.04c-.02,0,0-.02,0-.04Zm.05,.52c-.04-.15-.09-.31-.14-.46,.04,.05,.06,.15,.07,.21,.02,.08,.05,.16,.06,.25Zm-.18-1.05h.01v0Zm-.03,.25c.02,.06,.01,.13,.02,.2-.03-.04-.05-.11-.07-.16-.02-.04-.08-.14-.04-.16,.08-.04,.08,.08,.09,.12Zm-.32-.97s0-.03,0-.05c.13,.07,.02,.12,.03,.22,.11-.07,.12,0,.16,.11,.04,.1,.1,.22,.08,.33-.03-.06-.06-.13-.09-.19-.02-.03-.08-.14-.1-.04,0,.03,.15,.37,.03,.29-.04-.02-.06-.13-.07-.17-.03-.08-.05-.16-.08-.24-.04-.12-.12-.2,.02-.25Zm-.63-.6l-.05-.07c.06-.04,.1,.02,.05,.07Zm-.12-.24l.08,.12s-.1-.11-.08-.12Zm-.32-.79l-.08-.06s.09,0,.08,.06Zm-.19,.1c.1,.04,.15,.11,.2,.19,.05,.08,.13,.17,.15,.27-.08-.02-.15-.12-.2-.17-.08-.09-.16-.18-.16-.29Zm-.2-.21h.06s0,.07-.04,.07c-.04,0-.02-.04-.02-.07Zm-.02,.13c.08,.06,.13,.14,.19,.22-.07-.03-.24-.15-.24-.22h.05Zm-.21-.15c.05-.02,.09,.05,.05,.08-.03-.02-.05-.04-.08-.07l.02-.02ZM3.75,1.55c.07-.05,.13-.11,.22-.14-.06,.04-.16,.13-.22,.14ZM1.46,4.4h0Zm-.54,1.68s.04,0,.05,0c.01,.02-.03,.16-.03,.16-.06,0-.03-.14-.02-.17Zm-.06,.57s.03-.04,.05-.06c0,.04,0,.25-.04,.26-.03,0-.02-.17,0-.2Zm.01,.31s0,.02-.02,0c0-.01,.01-.01,.02,0Zm-.07,.28l.05-.04c.06,.07,.02,.1-.05,.04Zm.06,1.27h-.02s.03-.03,.04,0h-.01Zm.04,.14v-.02s0,0,0,.02Zm0-.73c-.04-.19-.12-.38-.05-.56,.05,.06,.03,.2,.03,.28,0,.1,.01,.2,.03,.3h-.01Zm.07,1.08s-.08-.06-.05-.11c.03,.04,.07,.06,.05,.11Zm.13,.03s0-.03,0-.05c.02,.06,.03,.11,.05,.17-.02-.03-.06-.08-.05-.12Zm.14,.67s-.03-.02-.02-.05c.03,0,.03,.02,.02,.05Zm-.06-.46s.01,.04,.02,.06c-.01-.02-.02-.04-.02-.06Zm8.77,4.6s0-.01,0-.02c0,0,.02,.01,0,.02Zm3.28-1.94s-.03-.03-.03-.03c0,0,.05-.01,.03,.03Zm.12-.24l.11-.11s-.08,.08-.11,.11Zm.3-.31c-.05,.06-.11,.11-.17,.17,.05-.06,.09-.16,.17-.2,0,.01,0,.02,0,.03Zm.57-.66c-.12,.16-.24,.31-.38,.45-.02,.02-.15,.19-.16,.08,0-.06,.13-.1,.06-.14,.09-.08,.19-.15,.27-.24,.07-.08,.14-.17,.22-.24,0,.03,0,.07-.02,.1Zm.05-.24s0-.02,.01,0c0,.01,0,0-.01,0Zm.09,.3l-.06-.04s.06,0,.06,.04Zm.12-1.88s-.03,.03-.05,.03c0-.04,0-.07,.03-.09,.01,.02,.02,.04,.02,.06Zm.15,.52c-.02,.06-.05,.11-.07,.16,.02-.12,.05-.22,.1-.33,0,.05,0,.11-.03,.16Zm.01-1.13v-.04s.03,.04,0,.04Zm.06-.16s-.05-.23,0-.17c.05,.05,0,.12,0,.17Z"></path><path class="cls-1" d="M15.27,7.15s.01,.03,.02,.05c0-.01,.02-.03,.02-.05-.01,0-.03,0-.04,0Z"></path><path class="cls-1" d="M10.36,.68s-.05-.01-.09-.01c.03,.02,.05,.03,.09,.01Z"></path><path class="cls-1" d="M.93,4.24c.12-.24,.25-.48,.39-.71,.17-.29,.36-.59,.61-.84,.2-.2,.4-.39,.6-.59,.05-.05,.09-.09,.14-.14,.06-.06,.15-.12,.17-.21-.12,0-.23,.15-.32,.23-.11,.1-.22,.21-.32,.32-.21,.22-.4,.45-.58,.69-.17,.23-.33,.48-.47,.73-.06,.11-.11,.22-.15,.32-.06,.14-.14,.28-.16,.43,.05-.07,.08-.15,.12-.23Z"></path><path class="cls-1" d="M14.8,5.36c0,.11,.01,.22,.1,.29,.1-.26,.04-.53-.01-.79-.06-.26-.13-.57-.28-.79-.02,.1,.01,.18,.04,.28,.03,.11,.05,.21,.08,.32,.05,.23,.09,.46,.08,.69Z"></path><path class="cls-1" d="M5.57,.49s.04,.05,.08,.06c.03,0,.1-.03,.12-.04,.11-.03,.21-.06,.32-.09,.17-.04,.39-.04,.55-.13-.15-.05-.33,0-.49,.01-.14,.01-.28,.03-.42,.06-.05,.01-.25,.05-.16,.12Z"></path><path class="cls-1" d="M13.01,1.37c.09,.1,.18,.2,.26,.31,.03,.04,.17,.26,.2,.23,.06,.08,.08,.17,.17,.2,0-.1-.08-.16-.14-.25-.07-.11-.16-.2-.24-.3-.09-.11-.18-.22-.26-.33-.07-.09-.15-.2-.23-.28-.02-.02-.06-.05-.1-.04-.05,.02-.03,.05,0,.08,.03,.05,.08,.09,.12,.14,.08,.08,.15,.16,.23,.24Z"></path><path class="cls-1" d="M14.86,6.02c0,.16-.02,.33-.04,.49,0,.08-.03,.16-.03,.24,0,.05,.02,.14,.08,.07,.04-.04,.03-.18,.04-.24,.01-.09,.02-.18,.03-.26,0-.08,.01-.16,.02-.24,0-.11,.04-.26,0-.36-.02-.07-.06-.08-.09,0-.01,.03-.02,.06-.02,.09,0,.07,0,.14,0,.21Z"></path><path class="cls-1" d="M2.32,11.86s-.21-.22-.19-.25c-.13-.16-.24-.36-.39-.5,.09,.21,.23,.39,.37,.57,.07,.09,.14,.18,.22,.26,.07,.08,.13,.17,.23,.22-.05-.11-.15-.21-.24-.3Z"></path><path class="cls-1" d="M10.16,.26c.11,0,.25,.05,.35,0-.07-.06-.1-.02-.19-.02-.12,0-.14-.1-.21-.17-.05-.05-.2-.12-.22-.03-.02,.09,.2,.18,.27,.22Z"></path><path class="cls-1" d="M13.92,2.54s.02-.02,.05-.02c.04,0,.06,.06,.08,.09,.05,.07,.1,.15,.16,.22,0-.12-.12-.4-.24-.43-.04-.01-.12-.03-.14,.01-.04,.06,.06,.09,.1,.12Z"></path><path class="cls-1" d="M15.16,7.63c-.06,.09-.04,.24-.05,.35l-.03,.26c.03-.1,.06-.2,.08-.3,.02-.1,.06-.23,0-.31Z"></path><path class="cls-1" d="M15.08,8.26s0-.01,0-.02c0,0-.01,.01,0,.02Z"></path><path class="cls-1" d="M2.56,2.52c-.08,.07-.17,.13-.23,.21-.04,.04-.04,.13,.05,.1,.05-.02,.12-.13,.15-.17,.02-.02,.07-.06,.07-.09,0-.02,0-.09-.04-.05Z"></path><path class="cls-1" d="M4.95,.65c.07,.03,.07-.05,.08-.1-.1,0-.15,.04-.24,.07-.08,.03-.13,.03-.18,.11,.11-.03,.23-.12,.34-.08Z"></path><path class="cls-1" d="M12.33,.66c.07,.07,.15,.16,.25,.2-.02-.12-.21-.23-.3-.31-.04-.03-.12-.08-.1,0,.01,.05,.11,.09,.15,.11Z"></path><path class="cls-1" d="M10.65,.47c.03,.06,.17,.04,.21,.04-.02-.04-.12-.22-.18-.18-.02,0,0,.04-.02,.06,0,0-.05,.07-.05,.05,0,.01,.04,.03,.04,.04Z"></path><path class="cls-1" d="M9.98,13.93s-.12,.06-.15,.07c-.11,.05-.28,.06-.37,.14,.1,.02,.21-.05,.3-.08,.11-.04,.22-.08,.32-.13-.03,0-.08,0-.11,0Z"></path><path class="cls-1" d="M13.67,3.24c0,.07,.08,.11,.13,.14,0-.1-.03-.17-.1-.25,0,.04-.02,.07-.03,.11Z"></path><path class="cls-1" d="M15.2,8.54c-.02,.08-.03,.17-.04,.25,.06-.16,.08-.34,.1-.51-.02,.07-.07,.2-.06,.26Z"></path><path class="cls-1" d="M.14,5.85l.03-.23c-.05,.17-.07,.3-.09,.48,.02-.08,.04-.17,.05-.25Z"></path><path class="cls-1" d="M1.06,9.67c.05,.12,.1,.24,.16,.36,.03-.16-.05-.26-.16-.36Z"></path><path class="cls-1" d="M4.03,.99s.02-.03,.03-.04c-.06,0-.16,.09-.2,.07l-.14,.13c.11-.05,.21-.1,.31-.17Z"></path><path class="cls-1" d="M1.37,10.43s.05,.02,.03-.06c-.02-.06-.06-.12-.08-.18-.09,.1,.05,.15,.05,.25Z"></path><path class="cls-1" d="M3.14,12.64s-.09-.06-.1-.03c0,.02,.03,.07,.04,.08,.06,.05,.18,.03,.06-.05Z"></path><path class="cls-1" d="M.47,5.43s0,.04,.02,.06c.07-.05,.06-.06,.04-.14-.02,.02-.05,.04-.06,.07Z"></path><path class="cls-1" d="M5.76,14.07c-.07-.03-.16-.04-.24-.06,.07,.04,.19,.1,.27,.09,0-.01-.02-.02-.03-.03Z"></path><path class="cls-1" d="M.7,4.71c-.03,.07-.04,.14-.05,.22,.04-.09,.08-.16,.08-.26-.01,.01-.02,.03-.03,.05Z"></path><path class="cls-1" d="M10.23,13.99s-.05,.03-.08,.04c.07,0,.13,0,.17-.05-.04,0-.05,0-.09,0Z"></path><path class="cls-1" d="M11.12,.63c-.06-.07-.11-.09-.09,.02l.09-.02Z"></path><path class="cls-1" d="M14.53,3.87c-.02-.09-.07-.18-.11-.27,.02,.08,.03,.21,.11,.27Z"></path><path class="cls-1" d="M4.63,.85l.06-.06c-.08,.02-.14,.02-.19,.09,.05,0,.08-.01,.13-.03Z"></path><path class="cls-1" d="M3.3,1.43c-.07,0-.08,0-.13,.04,.06,.03,.08,0,.13-.04Z"></path><path class="cls-1" d="M.12,9s.02,.03,.03,.04c.03-.07,.03-.08,0-.15,0,.04-.02,.07-.02,.11Z"></path><path class="cls-1" d="M1.56,10.71l-.06-.05s.03,.14,.08,.15c.05,0,0-.07-.01-.1Z"></path><path class="cls-1" d="M2.78,12.38c-.01,.06,.01,.06,.06,.1,.02-.06-.01-.06-.06-.1Z"></path><path class="cls-1" d="M2.76,2.23c.06-.02,.08-.06,.11-.11-.05,.04-.09,.06-.11,.11Z"></path><path class="cls-1" d="M9.57,14.23s-.04,0-.05,.02c.04,.05,.04,.05,.1,.03-.02-.02-.03-.03-.05-.05Z"></path><path class="cls-1" d="M3.47,1.28c-.05,.02-.06,.04-.09,.09,.06-.03,.07-.03,.09-.09Z"></path><path class="cls-1" d="M1.28,4.72c.06,0,.05-.01,.06-.07-.05,.02-.06,.02-.06,.07Z"></path><path class="cls-1" d="M15.08,9.06s0,.02,0,.04c.01-.03,.02-.05,.02-.09l-.02,.05Z"></path><path class="cls-1" d="M5.17,.66s.03-.03,.04-.04c-.05-.01-.05-.01-.08,.03,.01,0,.03,.02,.05,.02Z"></path><path class="cls-1" d="M11.56,1.14s-.04-.02-.06-.02c.02,.06,.03,.05,.09,.06,0-.01-.02-.03-.03-.04Z"></path><path class="cls-1" d="M7.97,14.29s.05,.01,.08,0c-.03,0-.05,0-.08,0Z"></path><path class="cls-1" d="M.41,5.69s0,.02,.02,.03c0,0,.03-.02,.03-.03-.01-.02-.05-.04-.05,0Z"></path><path class="cls-1" d="M9.64,.48s.04,0,.06,0c-.03-.04-.04-.05-.09-.04,0,.02,.01,.03,.03,.04Z"></path><path class="cls-1" d="M0,8.24s.01,.03,.02,.05c.02-.05,.02-.05,0-.1,0,.02-.01,.03-.02,.05Z"></path><path class="cls-1" d="M14.88,9.31s.03-.02,.03-.05c-.02,.01-.03,.03-.03,.05Z"></path><path class="cls-1" d="M1.22,10.05s0,0,0-.01c0,0,0,.01,0,.01Z"></path><path class="cls-1" d="M1.32,10.18l-.1-.13c0,.07,.04,.11,.1,.13Z"></path><path class="cls-1" d="M14.41,3.58l-.05-.13s.02,.1,.05,.13Z"></path><path class="cls-1" d="M14.41,3.58v.03s0-.03,0-.03Z"></path><path class="cls-1" d="M3.11,1.91s-.04,.01-.06,.05c.03,0,.04-.02,.06-.05Z"></path><path class="cls-1" d="M11.03,.81s-.03-.04-.06-.05c.01,.04,.02,.04,.06,.05Z"></path><path class="cls-1" d="M11.69,13.46s.02,.02,.04-.02c-.02,0-.04,0-.04,.02Z"></path><path class="cls-1" d="M9.57,13.99l.02-.03s-.02,.02-.02,.03Z"></path><path class="cls-1" d="M14.67,10.2v.03s.04,0,0-.03Z"></path><path class="cls-1" d="M2.97,1.65s-.03,0-.04,.03c.02,0,.03-.02,.04-.03Z"></path><path class="cls-1" d="M8.31,14.25v.03s.03-.03,0-.03Z"></path><path class="cls-1" d="M.08,8.68v.03h.02s0-.03-.02-.03Z"></path><path class="cls-1" d="M.55,4.42s.03,0,0-.02v.02Z"></path><path class="cls-1" d="M13.71,2.2s-.06,0-.01,.03c0-.01,.01-.02,.01-.03Z"></path><path class="cls-1" d="M14.75,10.05l.02-.02h-.01v.02Z"></path><path class="cls-1" d="M12.1,.96h0Z"></path><path class="cls-1" d="M5.15,.53s-.02,0,0,0c0,.01,0,0,0,0Z"></path><path class="cls-1" d="M.95,5.68s.03,0,.02-.04c-.02,0-.02,.02-.02,.04Z"></path><path class="cls-1" d="M9.31,14.09s.01-.01,0,0c-.01,0,0,0,0,0Z"></path><path class="cls-1" d="M3.95,1.16h-.01s0,0,.01,0Z"></path><path class="cls-1" d="M12.01,13.24v.03c.06-.02,0-.04,0-.03Z"></path><path class="cls-1" d="M11.81,13.37s0,.02,.02,.02c0-.03-.01-.01-.02-.02Z"></path><path class="cls-1" d="M.44,5.95v.02h.01s0-.02-.01-.02Z"></path><path class="cls-1" d="M12.64,1.58s.04-.02,.04-.02c0,0-.06-.02-.04,.02Z"></path><path class="cls-1" d="M5.38,.54s-.02,0-.02,0c0,0,.02,0,.02,0Z"></path><path class="cls-1" d="M14.72,6.81s.02,0,.02,0h-.02Z"></path><path class="cls-1" d="M14.68,4.77s0-.02,0,0,0,0,0,0Z"></path><path class="cls-1" d="M4.85,13.76s.02,0,0,0c-.02,0,0,0,0,0Z"></path><path class="cls-1" d="M13.94,2.6v-.03s-.01,.03,0,.03Z"></path><path class="cls-1" d="M13.93,2.57s0,0,0-.02c0,0,0,.01,0,.02Z"></path><path class="cls-1" d="M12.67,1.31s0,.02,0,.02c.01-.01,0,0,0-.02Z"></path><path class="cls-1" d="M15.04,9.24h.01v0Z"></path><path class="cls-1" d="M.29,6.61h0v0Z"></path><path class="cls-1" d="M14.59,3.99h-.01s0,0,.01,0Z"></path><path class="cls-1" d="M15.19,7.55h.02s-.04-.01-.02,0Z"></path><path class="cls-1" d="M12.64,12.7l-.02,.03s.02,0,.03-.03c0,0-.01,0-.02,0Z"></path><path class="cls-1" d="M9.72,14.25h.01s0,0-.01,0Z"></path><path class="cls-1" d="M6.18,14.28s0,.02,.02,.01c0-.01,0-.02-.02-.01Z"></path><path class="cls-1" d="M13.63,2.83s.02,0,.01-.02c-.02,0,0,0-.01,.02Z"></path><path class="cls-1" d="M5.32,13.95s.02,0,0,0c0-.01,0,0,0,0Z"></path><path class="cls-1" d="M2.93,12.52s.02,0,0-.01c-.01,0,0,0,0,.01Z"></path><path class="cls-1" d="M8.6,14.2h.02s0-.01-.02,0Z"></path><path class="cls-1" d="M3.43,1.79h-.03s.02,.01,.03,0Z"></path><path class="cls-1" d="M14.83,7s0-.02,0-.02c0,.01,0,.02,0,.02Z"></path><path class="cls-1" d="M9.85,.51s0-.02-.04,0c.03,.02,.02,.02,.04,0Z"></path><path class="cls-1" d="M3.05,2.11s-.01-.01-.02,0h.02Z"></path><path class="cls-1" d="M9.61,13.95s-.02,0-.03,.02c.04-.04,0,0,.03-.02Z"></path><path class="cls-1" d="M3.39,1.78s-.01,0-.03,.02c.01,0,.02,0,.03-.02Z"></path><path class="cls-1" d="M3.34,1.82l.02-.02s-.02,0-.02,.02Z"></path><path class="cls-1" d="M14.03,3.85h-.03s.02,.01,.03,0Z"></path></g></g></svg>