<svg xmlns="http://www.w3.org/2000/svg" enable-background="new 0 0 32 32" viewBox="0 0 32 32" id="full-screen"><path d="M10.52002.5H2C1.17139.5.5 1.17139.5 2v8.5C.5 11.32861 1.17139 12 2 12s1.5-.67139 1.5-1.5v-7h7.02002c.82861 0 1.5-.67139 1.5-1.5S11.34863.5 10.52002.5zM30 20c-.82861 0-1.5.67139-1.5 1.5v7h-6.97021c-.82861 0-1.5.67139-1.5 1.5s.67139 1.5 1.5 1.5H30c.82861 0 1.5-.67139 1.5-1.5v-8.5C31.5 20.67139 30.82861 20 30 20zM10.52002 28.5H3.5v-7C3.5 20.67139 2.82861 20 2 20s-1.5.67139-1.5 1.5V30c0 .82861.67139 1.5 1.5 1.5h8.52002c.82861 0 1.5-.67139 1.5-1.5S11.34863 28.5 10.52002 28.5zM30 .5h-8.47021c-.82861 0-1.5.67139-1.5 1.5s.67139 1.5 1.5 1.5H28.5v7c0 .82861.67139 1.5 1.5 1.5s1.5-.67139 1.5-1.5V2C31.5 1.17139 30.82861.5 30 .5z" fill="white"></path></svg>