<svg width="400" height="400" viewBox="0 0 400 400" fill="none" xmlns="http://www.w3.org/2000/svg">
<path fill-rule="evenodd" clip-rule="evenodd" d="M100.39 1.47901C84.3748 6.15201 71.6968 19.073 67.5668 34.93C66.7118 38.213 66.4048 43.854 66.4048 56.29V73.19L45.1158 86.768C15.9938 105.342 9.25178 112.282 2.81478 130.314L0.389784 137.109L0.177784 241.756C-0.0302161 344.128 -0.000216007 346.539 1.52678 352.693C6.99178 374.714 25.1788 392.937 47.1938 398.452C56.8818 400.879 343.116 400.879 352.804 398.452C379.791 391.692 399.999 366.489 399.999 339.592C399.999 327.779 394.792 321.875 384.374 321.875C374.494 321.875 369.584 327.138 368.075 339.346C366.109 355.267 356.19 365.736 340.99 367.932C333.537 369.009 66.4608 369.009 59.0078 367.932C44.5078 365.837 34.1618 355.491 32.0668 340.991C31.2778 335.532 30.8568 171.875 31.6318 171.875C31.8428 171.875 63.1848 191.254 101.282 214.939C183.604 266.12 181.046 264.826 199.902 264.838C219.095 264.851 216.542 266.144 300.604 213.825C337.675 190.753 368.173 171.875 368.378 171.875C368.582 171.875 368.749 192.674 368.749 218.095V264.316L370.723 267.684C376.553 277.632 392.195 277.632 398.025 267.684L399.999 264.316L399.994 203.056C399.987 135.521 400.03 136.173 394.932 124.692C388.338 109.84 382.765 104.653 352.849 85.532L333.433 73.121L333.737 58.24C334.159 37.589 337.442 32.031 349.218 32.031C359.333 32.031 363.995 37.922 364.63 51.505C365.254 64.839 369.863 70.312 380.468 70.313C391.815 70.313 396.093 64.657 396.093 49.654C396.093 24.851 383.161 6.93101 361.147 1.22601C353.499 -0.754987 107.229 -0.516987 100.39 1.47901ZM303.4 35.327C302.551 38.602 302.343 52.704 302.343 107.065V174.726L259.211 201.543C207.929 233.428 209.859 232.422 199.999 232.422C190.155 232.422 192.175 233.476 140.794 201.531L97.6048 174.679L97.8248 109.019C98.0768 34.1 97.6528 38.072 105.857 33.765C110.165 31.502 113.242 31.43 209.064 31.34L304.458 31.25L303.4 35.327ZM165.438 78.04C149.69 83.212 139.829 97.526 139.852 115.181C139.876 133.864 147.406 144.658 174.454 164.785C178.666 167.92 183.764 172.158 185.782 174.203C195.512 184.064 204.217 184.12 213.979 174.386C216.01 172.36 222.045 167.392 227.39 163.344C253.219 143.786 260.122 133.637 260.146 115.181C260.183 86.681 232.342 68.121 206.249 79.253C199.998 81.919 199.982 81.919 193.749 79.219C186.967 76.281 172.615 75.683 165.438 78.04ZM183.436 109.711C184.597 110.326 186.557 112.121 187.794 113.7C193.646 121.176 206.495 121.294 211.945 113.922C215.755 108.768 223.244 106.839 226.562 110.156C230.381 113.976 227.97 120.688 220.239 127.759C215.452 132.138 201.039 142.969 199.999 142.969C197.563 142.969 177.783 126.623 174.095 121.562C168.13 113.378 174.678 105.071 183.436 109.711ZM66.0808 154.49C65.5008 155.071 35.9358 136.416 35.9368 135.469C35.9368 132.369 42.0368 127.058 55.4678 118.466L66.0148 111.718L66.2228 132.93C66.3368 144.596 66.2738 154.298 66.0808 154.49ZM346.735 119.944C355.753 125.688 364.062 133.114 364.062 135.429C364.062 136.241 335.341 154.688 334.077 154.688C333.811 154.688 333.593 144.979 333.593 133.113V111.539L335.351 112.676C336.317 113.301 341.44 116.572 346.735 119.944Z" fill="white"/>
</svg>
