<svg width="400" height="400" viewBox="0 0 400 400" fill="none" xmlns="http://www.w3.org/2000/svg">
<path fill-rule="evenodd" clip-rule="evenodd" d="M136.718 1.54401C107.572 9.24301 90.9989 32.485 91.0249 65.625L91.0359 79.297L93.8539 87.314C101.392 108.765 115.658 124.532 152.343 151.956C168.584 164.098 178.566 172.421 184.294 178.596C191.251 186.097 193.713 187.492 199.999 187.492C206.285 187.492 208.747 186.097 215.704 178.596C221.518 172.327 231.285 164.206 248.942 150.956C278.013 129.142 290.052 117.331 299.875 100.987C318.453 70.077 309.01 25.608 280.28 8.70701C256.242 -5.43399 222.118 -2.41799 203.71 15.475L199.999 19.082L196.288 15.475C182.853 2.41601 156.631 -3.71599 136.718 1.54401ZM164.093 33.285C174.774 36.457 181.042 44.339 183.91 58.206C188.294 79.408 212.226 78.648 216.34 57.177C222.71 23.924 268.935 22.681 276.515 55.558C281.788 78.43 271.014 93.869 226.171 127.708C218.866 133.22 209.995 140.152 206.457 143.112L200.025 148.494L193.175 142.802C189.407 139.671 180.524 132.739 173.435 127.398C132.579 96.614 123.066 84.877 123.052 65.234C123.035 40.643 141.214 26.491 164.093 33.285ZM276.672 184.404C235.069 195.301 217.037 246.518 242.92 280.27L246.063 284.367L241.195 286.822C227.226 293.865 212.727 306.433 203.09 319.852C199.865 324.344 200.246 324.43 195.661 318.164C186.607 305.789 165.363 288.325 155.275 284.962C154.869 284.827 156.326 282.12 158.511 278.948C186.299 238.61 157.047 183.594 107.812 183.594C58.5759 183.594 29.3239 238.61 57.1119 278.948C59.2969 282.12 60.7539 284.827 60.3479 284.962C50.2269 288.335 29.5799 305.294 20.1599 317.969C-3.58112 349.916 -6.34312 381.69 13.4869 394.743C22.2039 400.482 5.57986 400.033 201.193 399.81L376.952 399.609L382.032 397.202C404.644 386.486 407.05 350.589 385.239 349.356C374.821 348.768 367.988 355.283 367.972 365.82L367.968 368.75H292.187C219.351 368.75 216.405 368.695 216.405 367.324C216.405 358.191 228.204 337.949 239.806 327.181C266.622 302.289 303.354 299.539 336.179 319.967C348.787 327.813 361.621 322.277 362.344 308.68C362.824 299.661 357.979 294.112 343.201 286.757L338.334 284.335L341.465 280.254C376.011 235.209 331.891 169.942 276.672 184.404ZM304.562 217.484C332.385 231.789 323.241 272.266 292.187 272.266C258.979 272.266 252.073 227.594 283.471 215.888C288.389 214.054 299.531 214.898 304.562 217.484ZM120.187 218.265C148.01 232.571 138.866 273.047 107.812 273.047C74.6039 273.047 67.6979 228.375 99.0959 216.669C104.014 214.836 115.156 215.679 120.187 218.265ZM126.57 308.838C148.635 314.524 167.234 329.513 177.257 349.686C180.154 355.518 183.593 365.272 183.593 367.66C183.593 368.585 172.108 368.75 107.812 368.75C34.9759 368.75 32.0299 368.695 32.0299 367.324C32.0299 366.54 32.9029 363.333 33.9699 360.196C47.2359 321.192 87.6139 298.798 126.57 308.838Z" fill="white"/>
</svg>
