<svg width="400" height="400" viewBox="0 0 400 400" fill="none" xmlns="http://www.w3.org/2000/svg">
<g clip-path="url(#clip0_166_36)">
<path fill-rule="evenodd" clip-rule="evenodd" d="M89.2708 1.998C83.3268 5.56 82.0328 8.952 82.0328 20.967V31.25H67.7048C32.8928 31.25 9.17285 48.174 1.55685 78.445C-0.874153 88.105 -0.880153 343.104 1.54985 352.805C7.05185 374.771 25.2308 392.95 47.1968 398.452C56.8848 400.879 343.119 400.879 352.807 398.452C379.794 391.692 400.002 366.489 400.002 339.592C400.002 327.779 394.795 321.875 384.377 321.875C374.497 321.875 369.587 327.138 368.078 339.346C366.112 355.267 356.193 365.736 340.993 367.932C333.54 369.009 66.4638 369.009 59.0108 367.932C44.5108 365.837 34.1648 355.491 32.0698 340.991C30.9948 333.555 30.9948 97.695 32.0698 90.259C34.8308 71.154 47.5848 62.561 73.2438 62.515L82.0328 62.5V72.783C82.0328 88.123 86.2258 93.75 97.6578 93.75C109.09 93.75 113.283 88.123 113.283 72.783V62.5H148.44H183.596V72.783C183.596 88.123 187.789 93.75 199.221 93.75C210.653 93.75 214.846 88.123 214.846 72.783V62.5H250.393H285.94V72.783C285.94 88.123 290.133 93.75 301.564 93.75C312.996 93.75 317.19 88.123 317.19 72.783V62.5L326.369 62.515C344.163 62.545 351.566 64.743 359.037 72.215C369.02 82.197 368.718 78.842 368.737 180.009L368.752 264.316L370.726 267.684C376.556 277.632 392.198 277.632 398.028 267.684L400.002 264.316V174.47C400.002 72.481 400.418 79.377 393.406 65.234C381.971 42.171 362.209 31.25 331.908 31.25H317.19V20.967C317.189 5.627 312.996 -8.9407e-08 301.564 -8.9407e-08C290.133 -8.9407e-08 285.94 5.627 285.94 20.967V31.25H250.393H214.846V20.967C214.846 5.627 210.653 -8.9407e-08 199.221 -8.9407e-08C187.789 -8.9407e-08 183.596 5.627 183.596 20.967V31.25H148.44H113.283V20.967C113.283 11.379 113.15 10.456 111.309 7.316C107.093 0.122 96.6188 -2.406 89.2708 1.998ZM89.2708 150.436C79.3968 156.353 79.4418 171.908 89.3488 177.714C103.536 186.028 119.623 169.94 111.309 155.753C107.093 148.559 96.6188 146.032 89.2708 150.436ZM157.239 150.436C147.366 156.353 147.411 171.908 157.318 177.714C164.745 182.066 175.068 179.555 179.278 172.372C187.602 158.169 171.341 141.984 157.239 150.436ZM225.208 150.436C215.335 156.353 215.38 171.908 225.287 177.714C232.714 182.066 243.037 179.555 247.247 172.372C255.57 158.169 239.31 141.984 225.208 150.436ZM293.177 150.436C283.304 156.353 283.348 171.908 293.255 177.714C300.682 182.066 311.006 179.555 315.216 172.372C323.539 158.169 307.278 141.984 293.177 150.436ZM232.629 217.103C216.83 222.291 207.019 236.532 207.043 254.243C207.067 272.926 214.596 283.72 241.645 303.848C245.857 306.982 250.954 311.22 252.973 313.266C262.738 323.162 271.632 323.172 281.377 313.295C283.379 311.266 288.477 307.036 292.705 303.894C319.612 283.904 327.312 272.865 327.336 254.243C327.374 225.743 299.532 207.184 273.44 218.315C267.189 220.982 267.172 220.982 260.94 218.282C254.158 215.343 239.806 214.746 232.629 217.103ZM89.2708 218.405C79.3968 224.322 79.4418 239.876 89.3488 245.682C103.536 253.996 119.623 237.909 111.309 223.722C107.093 216.528 96.6188 214.001 89.2708 218.405ZM157.239 218.405C147.366 224.322 147.411 239.876 157.318 245.682C171.505 253.996 187.592 237.909 179.278 223.722C175.062 216.528 164.587 214.001 157.239 218.405ZM250.627 248.774C251.787 249.389 253.748 251.184 254.984 252.763C260.836 260.239 273.685 260.356 279.136 252.984C282.946 247.831 290.435 245.902 293.752 249.219C297.571 253.038 295.161 259.75 287.43 266.821C282.642 271.201 268.229 282.031 267.19 282.031C264.754 282.031 244.973 265.686 241.285 260.625C235.32 252.441 241.868 244.134 250.627 248.774ZM89.2708 286.373C79.3968 292.291 79.4418 307.845 89.3488 313.651C103.536 321.965 119.623 305.878 111.309 291.691C107.093 284.497 96.6188 281.969 89.2708 286.373ZM157.239 286.373C147.366 292.291 147.411 307.845 157.318 313.651C171.505 321.965 187.592 305.878 179.278 291.691C175.062 284.497 164.587 281.969 157.239 286.373Z" fill="white"/>
</g>
<defs>
<clipPath id="clip0_166_36">
<rect width="400" height="400" fill="white"/>
</clipPath>
</defs>
</svg>
