<svg width="400" height="386" viewBox="0 0 400 386" fill="none" xmlns="http://www.w3.org/2000/svg">
<path fill-rule="evenodd" clip-rule="evenodd" d="M322.267 1.494C307.023 5.478 299.935 23.132 307.504 38.262C311.135 45.52 317.725 52.124 331.775 62.586C337.717 67.01 344.776 72.731 347.462 75.298L352.345 79.966L357.228 75.303C359.913 72.738 367.196 66.815 373.412 62.14C397.482 44.039 404.136 31.977 398.757 16.191C392.143 -3.221 359.498 -4.094 353.781 14.988C352.645 18.778 352.044 18.778 350.908 14.988C348.01 5.314 333.608 -1.471 322.267 1.494ZM52.2135 18.018C29.2975 21.885 10.8665 37.558 2.83245 60.008L0.39245 66.828L0.16745 198.078C0.00845005 291.025 0.19345 330.798 0.80245 334.365C4.70545 357.206 22.9284 376.585 46.8764 383.36C54.7794 385.596 345.223 385.596 353.126 383.36C381.038 375.464 399.316 352.751 399.532 325.696L399.61 315.813L397.221 312.805C386.691 299.547 370.327 306.084 368.081 324.446C366.43 337.949 358.522 347.819 346.341 351.582C338.324 354.058 61.6784 354.058 53.6614 351.582C41.9674 347.97 33.6394 337.964 32.0324 325.596C31.0574 318.092 31.0574 84.315 32.0324 76.811C33.6394 64.442 41.9674 54.437 53.6614 50.825C58.6624 49.28 60.7045 49.25 160.855 49.25H262.951L266.392 47.492C278.003 41.56 278.003 24.909 266.392 18.977L262.951 17.219L159.406 17.311C102.456 17.361 54.2195 17.68 52.2135 18.018ZM68.7674 81.477C54.0744 88.983 59.3504 111.75 75.7824 111.75C77.9504 111.75 80.7124 111.058 82.7984 109.992C97.4904 102.486 92.2144 79.719 75.7824 79.719C73.6154 79.719 70.8524 80.411 68.7674 81.477ZM131.267 81.477C116.574 88.983 121.85 111.75 138.282 111.75C140.45 111.75 143.212 111.058 145.298 109.992C159.99 102.486 154.714 79.719 138.282 79.719C136.115 79.719 133.352 80.411 131.267 81.477ZM215.008 89.452C194.441 94.136 181.587 110.245 180.677 132.479C179.735 155.508 188.629 169.078 220.314 192.951C227.403 198.293 236.025 205.396 239.473 208.735C246.227 215.278 249.708 217.219 254.689 217.219C259.669 217.219 263.15 215.278 269.904 208.735C273.352 205.396 281.974 198.293 289.064 192.951C324.847 165.989 335.335 145.256 326.665 118.62C317.896 91.682 283.914 79.744 259.281 94.949L254.689 97.783L250.096 94.949C240.801 89.212 226.145 86.916 215.008 89.452ZM377.36 98.664C375.468 99.631 372.845 101.773 371.531 103.424L369.142 106.426V178.547V250.667L371.531 253.67C378.327 262.211 390.425 262.211 397.221 253.67L399.61 250.667V178.547V106.426L397.221 103.424C394.114 99.519 388.965 96.906 384.376 96.906C382.209 96.906 379.446 97.598 377.36 98.664ZM231.977 121.712C235.442 123.479 237.23 126.049 238.361 130.891C240.34 139.357 242.096 142.119 247.145 144.708C256.89 149.704 268.385 143.97 270.416 133.101C272.111 124.026 275.619 120.734 283.595 120.734C299.913 120.734 301.894 138.325 287.2 152.766C281.785 158.088 256.081 178.156 254.679 178.156C250.614 178.156 217.74 149.532 214.557 143.221C207.579 129.388 219.11 115.151 231.977 121.712ZM68.7674 292.414C54.0744 299.921 59.3504 322.688 75.7824 322.688C77.9504 322.688 80.7124 321.995 82.7984 320.93C97.4904 313.423 92.2144 290.656 75.7824 290.656C73.6154 290.656 70.8524 291.348 68.7674 292.414ZM131.267 292.414C116.574 299.921 121.85 322.688 138.282 322.688C140.45 322.688 143.212 321.995 145.298 320.93C159.99 313.423 154.714 290.656 138.282 290.656C136.115 290.656 133.352 291.348 131.267 292.414ZM193.767 292.414C179.074 299.921 184.35 322.688 200.782 322.688C202.95 322.688 205.712 321.995 207.798 320.93C222.49 313.423 217.214 290.656 200.782 290.656C198.615 290.656 195.852 291.348 193.767 292.414ZM256.267 292.414C241.574 299.921 246.85 322.688 263.282 322.688C265.45 322.688 268.212 321.995 270.298 320.93C284.99 313.423 279.714 290.656 263.282 290.656C261.115 290.656 258.352 291.348 256.267 292.414ZM318.767 292.414C304.074 299.921 309.35 322.688 325.782 322.688C327.95 322.688 330.712 321.995 332.798 320.93C347.49 313.423 342.214 290.656 325.782 290.656C323.615 290.656 320.852 291.348 318.767 292.414Z" fill="white"/>
</svg>
