<svg width="360" height="400" viewBox="0 0 360 400" fill="none" xmlns="http://www.w3.org/2000/svg">
<path fill-rule="evenodd" clip-rule="evenodd" d="M47.6229 1.629C24.9189 7.235 6.58488 26.345 1.83687 49.355C-0.508125 60.719 -0.508125 339.281 1.83687 350.645C6.65088 373.975 25.1149 392.961 48.3559 398.48C54.5179 399.944 57.1909 400.034 88.5009 399.829L122.045 399.609L125.046 397.22C133.586 390.423 133.586 378.329 125.047 371.53L122.047 369.141L89.8909 368.696C63.1949 368.327 57.1919 368.042 54.5339 367.015C43.0529 362.579 36.2969 355.474 33.5569 344.953C31.7149 337.878 31.7149 62.122 33.5569 55.047C36.7409 42.822 46.9629 33.856 59.8399 31.994C66.6229 31.013 252.316 31.062 259.125 32.047C268.404 33.388 277.338 39.334 281.992 47.266C286.175 54.393 286.251 55.535 286.251 110.936V162.169L288.009 165.609C291.183 171.822 294.663 173.828 302.267 173.828C309.871 173.828 313.35 171.822 316.524 165.609L318.282 162.169L318.272 109.405C318.26 48.747 318.204 48.1 311.75 34.902C304.21 19.481 291.67 8.478 274.923 2.589L268.673 0.391L161.251 0.244C56.9009 0.101 53.6519 0.141 47.6229 1.629ZM118.497 66.002C99.4489 71.337 86.8929 87.477 85.6989 108.165C84.4359 130.032 95.1769 146.354 126.095 169.553C133.185 174.873 141.858 181.964 145.369 185.312C156.837 196.245 163.483 196.229 174.851 185.24C178.328 181.88 186.954 174.773 194.019 169.448C225.619 145.631 235.791 130.204 234.402 108.203C232.145 72.474 194.971 52.899 164.329 71.304L160.079 73.857L155.799 71.293C145.783 65.293 129.352 62.962 118.497 66.002ZM138.453 98.461C141.281 100.186 143.575 104.58 144.44 109.932C147.107 126.428 171.513 126.903 175.355 110.533C177.8 100.112 181.042 96.883 189.065 96.878C205.041 96.868 207.174 114.349 192.925 128.519C187.466 133.948 161.584 154.149 160.072 154.161C156.272 154.19 124.107 126.662 120.295 120.117C112.169 106.165 125.334 90.463 138.453 98.461ZM300.314 213.731C287.625 217.064 288.618 216.22 237.949 266.708C212.457 292.108 191.13 313.78 190.557 314.866C188.487 318.79 169.845 381.758 169.845 384.827C169.845 392.608 176.268 399.347 184.163 399.85C189.958 400.219 251.743 383.65 257.668 380.138C265.836 375.295 350.676 288.322 354.13 281.25C372.304 244.034 339.871 203.342 300.314 213.731ZM71.7979 223.878C61.0409 229.504 59.7719 243.52 69.3309 251.127L72.3339 253.516H142.11H211.887L214.889 251.127C223.43 244.33 223.43 232.233 214.89 225.436L211.888 223.047L143.015 222.849C81.7109 222.674 73.8839 222.787 71.7979 223.878ZM318.45 245.294C319.871 245.341 324.923 250.696 326.2 253.509C328.814 259.263 327.351 265.9 322.456 270.492L320.182 272.625L309.674 262.095L299.165 251.565L302.001 248.729C305.364 245.366 310.877 243.644 315.121 244.631C316.645 244.985 318.143 245.284 318.45 245.294ZM268.854 324.023L240.137 352.734L225.187 356.85C216.964 359.113 210.151 360.871 210.045 360.756C209.94 360.641 211.881 353.867 214.359 345.703L218.864 330.859L247.627 302.495L276.389 274.13L286.981 284.721L297.572 295.312L268.854 324.023ZM71.7979 286.373C61.0389 292.022 59.7719 306.019 69.3309 313.627L72.3339 316.016H112.032H151.731L154.733 313.627C163.274 306.83 163.274 294.733 154.734 287.936L151.732 285.547L112.937 285.345C78.8819 285.167 73.8549 285.293 71.7979 286.373Z" fill="white"/>
</svg>
