<svg width="400" height="370" viewBox="0 0 400 370" fill="none" xmlns="http://www.w3.org/2000/svg">
<path fill-rule="evenodd" clip-rule="evenodd" d="M296.095 1.371C294.161 1.74 282.208 4.378 269.532 7.234C256.856 10.091 202.54 22.263 148.829 34.284C40.8904 58.442 41.7754 58.229 34.9244 61.663C17.5384 70.375 5.95941 84.803 1.53241 103.271C-0.816593 113.065 -0.818593 192.831 1.52941 197.433C3.73341 201.752 7.13241 204.262 13.2434 206.082C36.2434 212.932 36.2434 243.787 13.2434 250.637C7.13241 252.457 3.73341 254.967 1.52941 259.286C-0.468593 263.203 -0.779593 311.265 1.13541 320.299C5.88841 342.727 23.5204 360.94 46.8764 367.548C54.7794 369.783 345.223 369.783 353.126 367.548C374.557 361.485 390.188 346.816 397.382 326.016L399.544 319.766L399.824 291.124C400.171 255.595 399.827 254.529 386.759 250.637C363.759 243.787 363.759 212.932 386.759 206.082C392.87 204.262 396.269 201.752 398.473 197.433C400.471 193.515 400.782 145.454 398.867 136.419C394.218 114.484 377.268 96.544 354.555 89.519L348.829 87.748L204.776 87.35L60.7234 86.953L98.1364 78.579C118.712 73.973 173.341 61.725 219.532 51.361C311.67 30.689 308.06 31.29 316.592 35.196C322.379 37.845 326.085 41.33 329.703 47.524C337.612 61.067 353.714 62.161 359.444 49.544C369.69 26.981 328.013 -4.712 296.095 1.371ZM346.238 120.918C363.219 126.163 368.687 137 368.716 165.469L368.728 178.359L365.029 180.402C328.335 200.664 328.489 256.998 365.293 276.522L368.751 278.357L368.725 291.249C368.669 319.529 363.108 330.59 346.341 335.769C338.324 338.245 61.6784 338.245 53.6614 335.769C36.8504 330.577 31.3284 319.596 31.2754 291.249L31.2514 278.357L34.7094 276.522C71.5134 256.998 71.6674 200.664 34.9734 180.402L31.2744 178.359L31.2864 165.469C31.3154 137.075 36.6984 126.328 53.5924 120.932C60.9844 118.571 338.597 118.558 346.238 120.918ZM160.32 166.608C139.753 171.292 126.9 187.402 125.99 209.635C125.047 232.664 133.941 246.234 165.626 270.107C172.716 275.449 181.337 282.552 184.785 285.891C191.54 292.434 195.021 294.375 200.001 294.375C204.981 294.375 208.462 292.434 215.217 285.891C218.665 282.552 227.286 275.449 234.376 270.107C270.16 243.146 280.648 222.412 271.977 195.777C263.208 168.838 229.226 156.901 204.593 172.105L200.001 174.939L195.409 172.105C186.114 166.368 171.458 164.072 160.32 166.608ZM178.722 199.554C181.331 201.46 183.362 205.376 184.274 210.257C187.598 228.053 212.404 228.053 215.728 210.257C217.424 201.182 220.932 197.891 228.907 197.891C245.236 197.891 247.21 215.505 232.496 229.922C227.013 235.293 201.393 255.313 200.001 255.313C195.929 255.313 163.057 226.697 159.869 220.378C152.647 206.058 166.573 190.676 178.722 199.554Z" fill="white"/>
</svg>
